<?xml version="1.0" encoding="UTF-8"?>
<svg width="153px" height="24px" viewBox="0 0 153 24" version="1.1" xmlns="http://www.w3.org/2000/svg" xmlns:xlink="http://www.w3.org/1999/xlink">
    <!-- Generator: Sketch 47.1 (45422) - http://www.bohemiancoding.com/sketch -->
    <title>datanyze</title>
    <desc>Created with Sketch.</desc>
    <defs></defs>
    <g id="Page-1" stroke="none" stroke-width="1" fill="none" fill-rule="evenodd">
        <g id="01.-Desktop" transform="translate(-1027.000000, -980.000000)" fill-rule="nonzero" fill="#AEB5BD">
            <g id="logos" transform="translate(261.000000, 974.000000)">
                <g id="datanyze" transform="translate(765.000000, 6.000000)">
                    <path d="M21.1636364,2.4 C20.4,1.2 18.8727273,0.109090909 16.2545455,0.109090909 L8.83636364,0.109090909 C7.96363636,0.109090909 7.2,0.436363636 6.54545455,0.981818182 C5.89090909,1.52727273 5.45454545,2.29090909 5.23636364,3.16363636 L1.2,16.8 C0.872727273,17.4545455 0.981818182,18.1090909 1.41818182,18.6545455 C1.52727273,18.7636364 1.96363636,19.2 3.38181818,19.2 L11.1272727,19.2 C13.3090909,19.2 15.4909091,18.4363636 17.1272727,16.9090909 C19.3090909,14.8363636 20.4,11.5636364 20.9454545,9.49090909 C21.7090909,7.2 22.3636364,4.47272727 21.1636364,2.4 L21.1636364,2.4 Z M17.3454545,9.16363636 C16.3636364,12.4363636 15.4909091,13.8545455 14.8363636,14.5090909 C13.6363636,15.8181818 12,16.4727273 10.2545455,16.2545455 L6.10909091,16.2545455 C5.78181818,16.2545455 5.45454545,16.2545455 5.23636364,15.9272727 C5.01818182,15.6 5.23636364,15.2727273 5.23636364,14.9454545 L8.4,4.03636364 C8.50909091,3.70909091 8.72727273,3.27272727 9.05454545,3.05454545 C9.38181818,2.94545455 9.6,2.83636364 9.92727273,2.83636364 L13.6363636,2.83636364 C14.9454545,2.83636364 16.5818182,3.05454545 17.3454545,4.25454545 C18.1090909,5.45454545 17.8909091,7.52727273 17.3454545,9.16363636 L17.3454545,9.16363636 Z M33.3818182,4.8 L25.2,4.8 L24.4363636,7.2 L31.6363636,7.2 C32.1818182,7.09090909 32.7272727,7.41818182 33.0545455,7.85454545 C33.2727273,8.29090909 33.2727273,8.72727273 33.0545455,9.27272727 L32.7272727,10.2545455 L26.4,10.2545455 C25.4181818,10.2545455 24.3272727,10.4727273 23.5636364,11.1272727 C22.3636364,12 21.6,13.2 21.2727273,14.6181818 C20.9454545,15.7090909 20.5090909,17.5636364 21.3818182,18.5454545 C22.0363636,19.0909091 22.9090909,19.4181818 23.7818182,19.2 L30.6545455,19.2 C31.4181818,19.3090909 32.1818182,19.0909091 32.8363636,18.6545455 C33.3818182,18.2181818 33.7090909,17.5636364 33.9272727,16.8 L36.1090909,9.38181818 C36.5454545,8.29090909 36.5454545,7.09090909 36,6 C35.3454545,5.12727273 34.3636364,4.69090909 33.3818182,4.8 L33.3818182,4.8 Z M30.9818182,16.0363636 C30.9818182,16.2545455 30.7636364,16.4727273 30.5454545,16.5818182 C30.3272727,16.6909091 30,16.8 29.7818182,16.8 L25.3090909,16.8 C24.9818182,16.8 24.6545455,16.6909091 24.4363636,16.3636364 C24.2181818,15.8181818 24.2181818,15.2727273 24.4363636,14.7272727 C24.5454545,14.1818182 24.8727273,13.6363636 25.2,13.2 C25.5272727,12.8727273 26.0727273,12.6545455 26.5090909,12.6545455 L31.8545455,12.6545455 L30.9818182,16.0363636 Z M41.2363636,16.1454545 C40.5818182,15.3818182 41.0181818,14.0727273 41.3454545,13.0909091 L43.0909091,7.30909091 L47.1272727,7.30909091 L47.8909091,4.90909091 L43.6363636,4.90909091 L44.9454545,0.327272727 L41.7818182,0.327272727 L40.4727273,4.90909091 L38.5090909,4.90909091 L37.7454545,7.30909091 L39.7090909,7.30909091 L37.5272727,14.5090909 C36.9818182,16.3636364 37.2,17.3454545 37.8545455,18.1090909 C38.5090909,18.8727273 39.4909091,19.2 41.4545455,19.2 L43.4181818,19.2 L44.1818182,16.8 L43.4181818,16.8 C42.6545455,16.8 41.7818182,16.5818182 41.2363636,16.1454545 L41.2363636,16.1454545 Z M57.7090909,4.8 L49.5272727,4.8 L48.7636364,7.2 L55.8545455,7.2 C56.4,7.09090909 56.9454545,7.41818182 57.2727273,7.85454545 C57.4909091,8.29090909 57.4909091,8.72727273 57.2727273,9.27272727 L56.9454545,10.2545455 L50.7272727,10.2545455 C49.7454545,10.2545455 48.6545455,10.4727273 47.8909091,11.1272727 C46.6909091,12 45.9272727,13.2 45.6,14.6181818 C45.2727273,15.7090909 44.8363636,17.5636364 45.7090909,18.5454545 C46.3636364,19.0909091 47.2363636,19.4181818 48.1090909,19.2 L54.9818182,19.2 C55.7454545,19.3090909 56.5090909,19.0909091 57.1636364,18.6545455 C57.7090909,18.2181818 58.0363636,17.5636364 58.2545455,16.8 L60.4363636,9.38181818 C60.8727273,8.29090909 60.8727273,7.09090909 60.3272727,6 C59.6727273,5.12727273 58.6909091,4.69090909 57.7090909,4.8 L57.7090909,4.8 Z M55.3090909,16.0363636 C55.3090909,16.2545455 55.0909091,16.4727273 54.8727273,16.5818182 C54.6545455,16.6909091 54.3272727,16.8 54.1090909,16.8 L49.6363636,16.8 C49.3090909,16.8 48.9818182,16.6909091 48.7636364,16.3636364 C48.5454545,15.8181818 48.5454545,15.2727273 48.7636364,14.7272727 C48.8727273,14.1818182 49.2,13.6363636 49.5272727,13.2 C49.8545455,12.8727273 50.4,12.6545455 50.8363636,12.6545455 L56.0727273,12.6545455 L55.3090909,16.0363636 Z M152.290909,6.21818182 C151.2,5.89090909 150,6.54545455 149.672727,7.63636364 C149.563636,7.96363636 149.563636,8.18181818 149.672727,8.50909091 L143.563636,12.9818182 L143.454545,12.9818182 C143.018182,12.8727273 142.581818,12.8727273 142.145455,13.0909091 L136.8,9.49090909 C136.8,8.29090909 135.927273,7.30909091 134.727273,7.30909091 C133.745455,7.30909091 132.872727,7.96363636 132.545455,8.83636364 C132.436364,9.05454545 132.436364,9.38181818 132.436364,9.6 L127.527273,13.4181818 C127.418182,13.4181818 127.309091,13.3090909 127.2,13.3090909 C126.109091,12.9818182 124.909091,13.6363636 124.581818,14.7272727 C124.254545,15.8181818 124.909091,17.0181818 126,17.3454545 C127.090909,17.6727273 128.290909,17.0181818 128.618182,15.9272727 C128.618182,15.9272727 128.618182,15.9272727 128.618182,15.9272727 C128.618182,15.7090909 128.727273,15.4909091 128.727273,15.2727273 L133.745455,11.4545455 L133.963636,11.5636364 C134.4,11.6727273 134.945455,11.6727273 135.381818,11.4545455 L140.727273,14.9454545 C140.509091,16.1454545 141.381818,17.1272727 142.472727,17.3454545 C143.563636,17.4545455 144.654545,16.8 144.872727,15.7090909 C144.981818,15.3818182 144.981818,15.1636364 144.981818,14.8363636 L151.090909,10.3636364 L151.2,10.3636364 C152.290909,10.6909091 153.490909,10.1454545 153.927273,9.05454545 C154.254545,7.96363636 153.709091,6.76363636 152.618182,6.32727273 C152.4,6.21818182 152.290909,6.10909091 152.290909,6.21818182 L152.290909,6.21818182 Z" id="Shape"></path>
                    <path d="M117.054545,19.2 L117.818182,16.8 L110.836364,16.8 C109.636364,16.8 108.327273,16.5818182 108.436364,15.0545455 C108.545455,14.4 108.654545,13.7454545 108.763636,13.0909091 L117.163636,13.0909091 C117.818182,13.0909091 118.363636,12.8727273 118.909091,12.5454545 C119.563636,12 120,11.2363636 120.218182,10.3636364 C120.763636,8.50909091 120.981818,6.76363636 119.563636,5.67272727 C118.472727,4.8 116.727273,4.69090909 115.090909,4.69090909 C113.127273,4.58181818 111.054545,5.01818182 109.309091,6 C107.345455,7.30909091 106.581818,9.38181818 105.818182,12 C105.272727,13.8545455 104.727273,15.9272727 105.272727,17.2363636 C105.927273,18.8727273 107.672727,19.0909091 109.090909,19.0909091 L117.054545,19.2 Z M109.418182,10.5818182 C109.636364,9.6 110.072727,8.72727273 110.836364,8.07272727 C111.818182,7.30909091 112.909091,6.98181818 114.109091,7.09090909 C114.981818,6.98181818 115.854545,7.2 116.618182,7.74545455 C117.054545,8.29090909 117.272727,9.05454545 116.945455,9.70909091 C116.836364,10.1454545 116.509091,10.5818182 115.963636,10.5818182 L109.418182,10.5818182 Z" id="Shape"></path>
                    <path d="M59.6727273,19.2 L62.8363636,19.2 L66.1090909,7.96363636 C66.1090909,7.74545455 66.3272727,7.52727273 66.4363636,7.41818182 C66.6545455,7.30909091 66.7636364,7.2 66.9818182,7.30909091 L70.2545455,7.30909091 C71.4545455,7.30909091 72,7.63636364 72.3272727,8.18181818 C72.5454545,9.05454545 72.5454545,9.92727273 72.2181818,10.6909091 L69.7090909,19.2 L72.8727273,19.2 L75.7090909,9.70909091 C76.2545455,7.74545455 75.9272727,6.65454545 75.3818182,6 C74.5090909,4.90909091 73.2,4.8 71.6727273,4.8 L66.5454545,4.8 C65.6727273,4.69090909 64.8,4.90909091 64.1454545,5.45454545 C63.7090909,5.89090909 63.3818182,6.43636364 63.2727273,6.98181818 L59.6727273,19.2 Z" id="Shape"></path>
                    <polygon id="Shape" points="93.6 4.8 90.3272727 4.8 82.1454545 15.8181818 80.8363636 4.8 77.5636364 4.8 79.7454545 19.0909091 76.1454545 23.7818182 79.4181818 23.7818182"></polygon>
                    <path d="M103.527273,16.6909091 L95.3454545,16.6909091 C95.2363636,16.6909091 95.1272727,16.6909091 95.1272727,16.5818182 C95.2363636,16.4727273 95.3454545,16.3636364 95.4545455,16.2545455 L105.163636,8.61818182 C105.818182,8.18181818 106.363636,7.41818182 106.581818,6.65454545 C106.909091,5.56363636 106.363636,4.8 105.272727,4.8 L95.1272727,4.8 L94.3636364,7.2 L102.218182,7.2 C102.436364,7.2 102.436364,7.30909091 102.436364,7.41818182 C102.436364,7.52727273 102.327273,7.52727273 102.109091,7.74545455 L92.5090909,15.2727273 C91.7454545,15.7090909 91.2,16.4727273 90.9818182,17.3454545 C90.4363636,19.2 91.9636364,19.3090909 92.4,19.3090909 L102.763636,19.3090909 L103.527273,16.6909091 Z" id="Shape"></path>
                </g>
            </g>
        </g>
    </g>
</svg>