<?xml version="1.0" encoding="UTF-8"?>
<svg width="121px" height="36px" viewBox="0 0 121 36" version="1.1" xmlns="http://www.w3.org/2000/svg" xmlns:xlink="http://www.w3.org/1999/xlink">
    <!-- Generator: Sketch 47.1 (45422) - http://www.bohemiancoding.com/sketch -->
    <title>hubspot</title>
    <desc>Created with Sketch.</desc>
    <defs></defs>
    <g id="Page-1" stroke="none" stroke-width="1" fill="none" fill-rule="evenodd">
        <g id="01.-Desktop" transform="translate(-261.000000, -974.000000)" fill-rule="nonzero" fill="#AEB5BD">
            <g id="logos" transform="translate(261.000000, 974.000000)">
                <g id="hubspot">
                    <polygon id="Shape" points="0 7.11428571 4.2 7.11428571 4.2 16.4571429 12.9428571 16.4571429 12.9428571 7.11428571 17.1428571 7.11428571 17.1428571 29.9142857 12.9428571 29.9142857 12.9428571 20.4 4.2 20.4 4.2 29.9142857 0 29.9142857"></polygon>
                    <path d="M30.4285714,22.4571429 C30.4285714,24.3428571 28.8857143,25.8857143 27,25.8857143 C25.1142857,25.8857143 23.5714286,24.3428571 23.5714286,22.4571429 L23.5714286,22.4571429 L23.5714286,12.6857143 L19.6285714,12.6857143 L19.6285714,22.5428571 C19.8,26.6571429 23.3142857,29.8285714 27.4285714,29.6571429 C31.2857143,29.4857143 34.2857143,26.4 34.5428571,22.5428571 L34.5428571,12.6857143 L30.6,12.6857143 L30.6,22.4571429" id="Shape"></path>
                    <path d="M45.5142857,12.7714286 C43.8,12.6857143 42.0857143,13.3714286 40.8857143,14.6571429 L40.8857143,7.11428571 L36.8571429,7.11428571 L36.8571429,21.0857143 C36.8571429,26.3142857 40.6285714,29.9142857 44.9142857,29.9142857 C49.7142857,30 53.6571429,26.1428571 53.7428571,21.3428571 C53.7428571,21.3428571 53.7428571,21.3428571 53.7428571,21.3428571 L53.7428571,21.3428571 C53.8285714,16.7142857 50.1428571,12.8571429 45.5142857,12.7714286 L45.5142857,12.7714286 Z M45.6,26.2285714 C42.8571429,26.1428571 40.8,23.8285714 40.8857143,21.1714286 C40.9714286,18.6 43.0285714,16.6285714 45.6,16.4571429 C47.9142857,16.4571429 49.9714286,18.6857143 49.9714286,21.3428571 C49.9714286,24 47.9142857,26.2285714 45.6,26.2285714 Z" id="Shape"></path>
                    <path d="M60.4285714,13.8 C60.4285714,11.8285714 61.8,11.1428571 63.2571429,11.1428571 C64.7142857,11.3142857 66,12 67.0285714,13.1142857 L69.6,10.0285714 C68.0571429,8.22857143 65.8285714,7.11428571 63.5142857,7.11428571 C59.2285714,7.11428571 56.0571429,9.68571429 56.0571429,13.8 C56.0571429,21.5142857 65.5714286,19.0285714 65.5714286,23.4 C65.4857143,24.8571429 64.2857143,25.9714286 62.7428571,25.9714286 C60.4285714,25.9714286 59.6571429,24.8571429 58.5428571,23.6571429 L55.7142857,26.4857143 C57.3428571,28.6285714 59.9142857,29.9142857 62.5714286,29.8285714 C66.6857143,29.8285714 69.9428571,27.2571429 69.9428571,23.3142857 C69.9428571,14.8285714 60.5142857,17.4857143 60.4285714,13.8" id="Shape"></path>
                    <path d="M80.4,12.5142857 C76.2,12.5142857 72.3428571,16.1142857 72.3428571,21.3428571 L72.3428571,35.4 L76.2857143,35.4 L76.2857143,27.7714286 C77.4857143,29.0571429 79.2,29.7428571 80.9142857,29.6571429 C85.5428571,29.5714286 89.2285714,25.7142857 89.1428571,21.0857143 C89.2285714,16.2857143 85.2857143,12.4285714 80.4,12.5142857 C80.4,12.5142857 80.4,12.5142857 80.4,12.5142857 L80.4,12.5142857 L80.4,12.5142857 Z M81.1714286,25.9714286 C78.4285714,25.8857143 76.3714286,23.5714286 76.4571429,20.9142857 C76.5428571,18.3428571 78.6,16.3714286 81.1714286,16.2 C83.4857143,16.2 85.5428571,18.4285714 85.5428571,21.0857143 C85.5428571,23.7428571 83.4,25.9714286 81.1714286,25.9714286 L81.1714286,25.9714286 L81.1714286,25.9714286 Z" id="Shape"></path>
                    <path d="M118.628571,26.2285714 C116.314286,26.2285714 115.628571,25.2 115.628571,23.6571429 L115.628571,16.8 L119.314286,16.8 L119.314286,13.2857143 L115.628571,13.2857143 L115.628571,8.74285714 L111.6,10.5428571 L111.6,24.6 C111.6,28.2 114.085714,30 117.514286,30 C118.028571,30 118.542857,30 119.142857,29.8285714 L120.171429,26.2285714 C119.571429,26.1428571 119.057143,26.2285714 118.628571,26.2285714" id="Shape"></path>
                    <path d="M108.085714,16.9714286 C107.314286,15.6857143 106.2,14.5714286 104.914286,13.8 C103.885714,13.2 102.857143,12.8571429 101.657143,12.6857143 L101.657143,8.57142857 C102.857143,8.05714286 103.542857,6.94285714 103.542857,5.65714286 C103.457143,3.94285714 102,2.57142857 100.2,2.65714286 C98.5714286,2.74285714 97.2857143,4.02857143 97.2,5.65714286 C97.2,6.94285714 97.8857143,8.05714286 99.0857143,8.57142857 L99.0857143,12.7714286 C98.1428571,12.9428571 97.2,13.2 96.2571429,13.6285714 L85.0285714,5.05714286 C85.1142857,4.71428571 85.2,4.45714286 85.2,4.11428571 C85.2,2.14285714 83.6571429,0.6 81.6857143,0.514285714 C79.7142857,0.428571429 78.1714286,2.05714286 78.0857143,4.02857143 C78,6 79.6285714,7.54285714 81.6,7.62857143 C82.2857143,7.62857143 82.8857143,7.45714286 83.4857143,7.11428571 L84.2571429,7.62857143 L94.3714286,14.9142857 C93.8571429,15.4285714 93.3428571,16.0285714 92.9142857,16.6285714 C92.0571429,17.9142857 91.6285714,19.3714286 91.6285714,20.8285714 L91.6285714,21.1714286 C91.6285714,22.2 91.8,23.2285714 92.1428571,24.1714286 C92.4857143,25.0285714 92.9142857,25.7142857 93.4285714,26.4 L90.0857143,29.7428571 C88.7142857,29.2285714 87.1714286,30 86.7428571,31.3714286 C86.2285714,32.7428571 87,34.2857143 88.3714286,34.7142857 C89.7428571,35.2285714 91.2857143,34.4571429 91.7142857,33.0857143 C91.8857143,32.5714286 91.8857143,31.9714286 91.7142857,31.4571429 L95.1428571,28.0285714 C95.6571429,28.3714286 96.1714286,28.6285714 96.6857143,28.8857143 C97.8,29.4 99.0857143,29.6571429 100.285714,29.6571429 L100.542857,29.6571429 C103.542857,29.6571429 106.371429,28.1142857 108,25.5428571 C108.857143,24.2571429 109.285714,22.8 109.285714,21.2571429 L109.285714,21.1714286 C109.285714,19.7142857 108.857143,18.2571429 108.085714,16.9714286 L108.085714,16.9714286 Z M103.885714,24.2571429 C103.114286,25.2857143 101.914286,25.8857143 100.628571,25.9714286 L100.457143,25.9714286 C99.7714286,25.9714286 99,25.8 98.4,25.4571429 C97.7142857,25.1142857 97.0285714,24.5142857 96.6,23.8285714 C96.0857143,23.1428571 95.8285714,22.3714286 95.8285714,21.6 L95.8285714,21.3428571 C95.8285714,20.5714286 96,19.8 96.3428571,19.1142857 C96.7714286,18.3428571 97.3714286,17.7428571 98.0571429,17.3142857 C98.7428571,16.8857143 99.5142857,16.6285714 100.371429,16.6285714 L100.457143,16.6285714 C101.228571,16.6285714 101.914286,16.8 102.6,17.1428571 C103.285714,17.4857143 103.885714,18 104.314286,18.6857143 C104.742857,19.3714286 105,20.0571429 105.085714,20.8285714 L105.085714,21.3428571 C105.085714,22.3714286 104.657143,23.4857143 103.885714,24.2571429 L103.885714,24.2571429 L103.885714,24.2571429 Z" id="Shape"></path>
                </g>
            </g>
        </g>
    </g>
</svg>