<?xml version="1.0" encoding="UTF-8"?>
<svg width="50px" height="50px" viewBox="0 0 50 50" version="1.1" xmlns="http://www.w3.org/2000/svg" xmlns:xlink="http://www.w3.org/1999/xlink">
    <!-- Generator: Sketch 47.1 (45422) - http://www.bohemiancoding.com/sketch -->
    <title>icon-2</title>
    <desc>Created with Sketch.</desc>
    <defs></defs>
    <g id="Page-1" stroke="none" stroke-width="1" fill="none" fill-rule="evenodd">
        <g id="Desktop" transform="translate(-781.000000, -670.000000)" fill-rule="nonzero" fill="#D7DBED">
            <g id="cards" transform="translate(261.000000, 650.000000)">
                <g id="feature-2" transform="translate(480.000000, 0.000000)">
                    <path d="M64.9991667,20 C78.8056667,20 89.9996667,31.1928333 89.9996667,44.9995 C89.9996667,58.8061667 78.8056667,70 64.9991667,70 C51.1926667,70 40,58.8055 40,44.9995 C40,31.1935 51.1926667,20 64.9991667,20 Z M79.4528333,56.0611667 L79.4528333,36.3383333 C79.4528333,34.2101667 77.7211667,32.479 75.5931667,32.479 L54.4061667,32.479 C52.2776667,32.479 50.5465,34.2103333 50.5465,36.3383333 L50.5465,56.0611667 C50.5465,58.1893333 52.2781667,59.9205 54.4061667,59.9205 L75.5931667,59.9205 C77.7211667,59.9205 79.4528333,58.1891667 79.4528333,56.0611667 Z M53.14,56.0611667 L53.14,41.8185 L76.8593333,41.8185 L76.8593333,56.0611667 C76.8593333,56.7593333 76.2913333,57.3268333 75.5931667,57.3268333 L54.4061667,57.3268333 C53.708,57.3268333 53.14,56.7588333 53.14,56.0611667 Z M76.8588333,36.3383333 L76.8588333,39.225 L53.14,39.225 L53.14,36.3383333 C53.14,35.6401667 53.708,35.0726667 54.4061667,35.0726667 L75.5931667,35.0726667 C76.2911667,35.0726667 76.8591667,35.6406667 76.8588333,36.3383333 Z M57.0026667,38.2135 L57.0026667,36.4843333 L55.38,36.4843333 L55.38,38.2135 L57.0026667,38.2135 Z M59.9476667,38.2135 L59.9476667,36.4843333 L58.325,36.4843333 L58.325,38.2135 L59.9476667,38.2135 Z M62.8923333,38.2135 L62.8923333,36.4843333 L61.2696667,36.4843333 L61.2696667,38.2135 L62.8923333,38.2135 Z" id="icon-2"></path>
                </g>
            </g>
        </g>
    </g>
</svg>