<?xml version="1.0" encoding="UTF-8"?>
<svg width="50px" height="50px" viewBox="0 0 50 50" version="1.1" xmlns="http://www.w3.org/2000/svg" xmlns:xlink="http://www.w3.org/1999/xlink">
    <!-- Generator: Sketch 47.1 (45422) - http://www.bohemiancoding.com/sketch -->
    <title>icon-1</title>
    <desc>Created with Sketch.</desc>
    <defs></defs>
    <g id="Page-1" stroke="none" stroke-width="1" fill="none" fill-rule="evenodd">
        <g id="Desktop" transform="translate(-300.000000, -680.000000)" fill-rule="nonzero" fill="#D7DBEE">
            <g id="cards" transform="translate(261.000000, 650.000000)">
                <g id="feature-1" transform="translate(0.000000, 10.000000)">
                    <path d="M63.9991667,20 C77.8056667,20 88.9996667,31.1928333 88.9996667,44.9995 C88.9996667,58.8061667 77.8056667,70 63.9991667,70 C50.1926667,70 39,58.8055 39,44.9995 C39,31.1935 50.1926667,20 63.9991667,20 Z M79.4171667,51.3283333 L79.4171667,35.3345 C79.4171667,33.4246667 77.8686667,31.8763333 75.959,31.8763333 L52.0401667,31.8763333 C50.1303333,31.8763333 48.582,33.4248333 48.582,35.3345 L48.582,51.3283333 C48.582,53.2381667 50.1305,54.7865 52.0401667,54.7865 L59.8976667,54.7865 L59.8976667,56.7178333 L55.9308333,56.7178333 C55.2145,56.7178333 54.634,57.2983333 54.634,58.0146667 C54.634,58.731 55.2145,59.3115 55.9308333,59.3115 L72.0685,59.3115 C72.7848333,59.3115 73.3653333,58.731 73.3653333,58.0146667 C73.3653333,57.2983333 72.7848333,56.7178333 72.0685,56.7178333 L68.1016667,56.7178333 L68.1016667,54.7865 L75.959,54.7865 C77.8688333,54.7865 79.4171667,53.238 79.4171667,51.3283333 Z M75.959,34.9023333 C76.1976667,34.9023333 76.3913333,35.096 76.3913333,35.3345 L76.3913333,51.3285 C76.3913333,51.5671667 76.1976667,51.7608333 75.959,51.7608333 L52.0401667,51.7608333 C51.8015,51.7608333 51.6078333,51.5671667 51.6078333,51.3285 L51.6078333,35.3346667 C51.6078333,35.096 51.8015,34.9023333 52.0401667,34.9023333 L75.959,34.9023333 Z" id="icon-1"></path>
                </g>
            </g>
        </g>
    </g>
</svg>