<?xml version="1.0" encoding="UTF-8"?>
<svg width="135px" height="32px" viewBox="0 0 135 32" version="1.1" xmlns="http://www.w3.org/2000/svg" xmlns:xlink="http://www.w3.org/1999/xlink">
    <!-- Generator: Sketch 47.1 (45422) - http://www.bohemiancoding.com/sketch -->
    <title>logo</title>
    <desc>Created with Sketch.</desc>
    <defs></defs>
    <g id="Page-1" stroke="none" stroke-width="1" fill="none" fill-rule="evenodd">
        <g id="Desktop" transform="translate(-261.000000, -20.000000)">
            <g id="header" transform="translate(261.000000, 20.000000)">
                <g id="logo">
                    <g id="logotype_4_" transform="translate(48.000000, 9.000000)" fill="#000000">
                        <path d="M2.24516129,8.44 L2.24516129,13.64 L0.0801843318,13.64 L0.0801843318,0.4 L5.25207373,0.4 C8.33917051,0.4 9.98294931,1.96 9.98294931,4.44 C9.98294931,6.92 8.33917051,8.48 5.25207373,8.48 L2.24516129,8.48 L2.24516129,8.44 Z M2.24516129,2.4 L2.24516129,6.4 L5.21198157,6.4 C6.9359447,6.4 7.73778802,5.76 7.73778802,4.4 C7.73778802,3.04 6.9359447,2.4 5.21198157,2.4 L2.24516129,2.4 L2.24516129,2.4 Z" id="XMLID_305_"></path>
                        <path d="M19.80553,13.64 L17.8009217,13.64 L17.8009217,12.56 C17.159447,13.36 16.2373272,13.88 14.9543779,13.88 C12.4285714,13.88 10.4239631,11.88 10.4239631,9.12 C10.4239631,6.36 12.4285714,4.36 14.9543779,4.36 C16.2373272,4.36 17.1995392,4.88 17.8009217,5.68 L17.8009217,4.6 L19.80553,4.6 L19.80553,13.64 L19.80553,13.64 Z M12.4285714,9.12 C12.4285714,10.72 13.4709677,12.04 15.1548387,12.04 C16.7986175,12.04 17.881106,10.8 17.881106,9.12 C17.881106,7.48 16.7986175,6.2 15.1548387,6.2 C13.4709677,6.2 12.4285714,7.52 12.4285714,9.12 L12.4285714,9.12 Z" id="XMLID_302_"></path>
                        <path d="M30.4299539,7.96 L30.4299539,13.68 L28.4253456,13.68 L28.4253456,8.6 C28.4253456,7.08 27.6235023,6.24 26.3004608,6.24 C25.0175115,6.24 23.935023,7.08 23.935023,8.64 L23.935023,13.68 L21.9304147,13.68 L21.9304147,4.6 L23.8949309,4.6 L23.8949309,5.72 C24.6165899,4.64 25.7391705,4.36 26.7013825,4.36 C28.9064516,4.36 30.4299539,5.84 30.4299539,7.96 L30.4299539,7.96 Z" id="XMLID_300_"></path>
                        <path d="M39.0898618,5.68 L39.0898618,0 L41.09447,0 L41.09447,13.64 L39.0898618,13.64 L39.0898618,12.56 C38.4483871,13.36 37.5262673,13.88 36.243318,13.88 C33.7175115,13.88 31.7129032,11.88 31.7129032,9.12 C31.7129032,6.36 33.7175115,4.36 36.243318,4.36 C37.5262673,4.36 38.4884793,4.88 39.0898618,5.68 L39.0898618,5.68 Z M33.7175115,9.12 C33.7175115,10.72 34.7599078,12.04 36.4437788,12.04 C38.0875576,12.04 39.1700461,10.8 39.1700461,9.12 C39.1700461,7.48 38.0875576,6.2 36.4437788,6.2 C34.7599078,6.2 33.7175115,7.52 33.7175115,9.12 L33.7175115,9.12 Z" id="XMLID_297_"></path>
                        <path d="M51.9995392,13.64 L49.9949309,13.64 L49.9949309,12.56 C49.3534562,13.36 48.4313364,13.88 47.1483871,13.88 C44.6225806,13.88 42.6179724,11.88 42.6179724,9.12 C42.6179724,6.36 44.6225806,4.36 47.1483871,4.36 C48.4313364,4.36 49.3935484,4.88 49.9949309,5.68 L49.9949309,4.6 L51.9995392,4.6 L51.9995392,13.64 L51.9995392,13.64 Z M44.6225806,9.12 C44.6225806,10.72 45.664977,12.04 47.3488479,12.04 C48.9926267,12.04 50.0751152,10.8 50.0751152,9.12 C50.0751152,7.48 48.9926267,6.2 47.3488479,6.2 C45.664977,6.2 44.6225806,7.52 44.6225806,9.12 L44.6225806,9.12 Z" id="XMLID_294_"></path>
                        <path d="M59.5368664,0.4 C63.7064516,0.4 66.4327189,3.04 66.4327189,7.04 C66.4327189,11.04 63.7064516,13.68 59.5368664,13.68 L54.2447005,13.68 L54.2447005,0.4 L59.5368664,0.4 L59.5368664,0.4 Z M56.4096774,2.44 L56.4096774,11.64 L59.5368664,11.64 C62.6640553,11.64 64.1875576,9.72 64.1875576,7.04 C64.1875576,4.32 62.6640553,2.44 59.5368664,2.44 L56.4096774,2.44 L56.4096774,2.44 Z" id="XMLID_291_"></path>
                        <path d="M77.2576037,9.12 C77.2576037,11.84 75.1728111,13.88 72.3663594,13.88 C69.5599078,13.88 67.4751152,11.84 67.4751152,9.12 C67.4751152,6.4 69.5599078,4.36 72.3663594,4.36 C75.1728111,4.36 77.2576037,6.4 77.2576037,9.12 L77.2576037,9.12 Z M69.5198157,9.12 C69.5198157,10.84 70.7626728,12.04 72.3663594,12.04 C74.0101382,12.04 75.2129032,10.84 75.2129032,9.12 C75.2129032,7.4 73.9700461,6.2 72.3663594,6.2 C70.7626728,6.2 69.5198157,7.4 69.5198157,9.12 L69.5198157,9.12 Z" id="XMLID_288_"></path>
                        <path d="M86.5990783,5.8 L85.316129,7.16 C84.6746544,6.56 83.9930876,6.24 83.1511521,6.24 C81.6276498,6.24 80.464977,7.44 80.464977,9.16 C80.464977,10.88 81.6276498,12.08 83.1511521,12.08 C84.0331797,12.08 84.7949309,11.68 85.3963134,11.12 L86.6391705,12.48 C85.797235,13.44 84.59447,13.92 83.2313364,13.92 C80.3447005,13.92 78.4603687,11.88 78.4603687,9.16 C78.4603687,6.44 80.3447005,4.4 83.2313364,4.4 C84.5543779,4.36 85.797235,4.84 86.5990783,5.8 L86.5990783,5.8 Z" id="XMLID_286_"></path>
                    </g>
                    <g id="mark_4_">
                        <rect id="XMLID_285_" fill="#47B972" x="0" y="0" width="32" height="32"></rect>
                        <path d="M23.7731092,7.01666667 L23.7731092,11.7595451 L23.6890756,11.799739 C22.9747899,11.2370246 22.0504202,10.8752796 20.8739496,10.8752796 C19.3613445,10.8752796 17.9747899,11.3978001 17.0504202,12.4428412 L18.4789916,13.889821 C19.1932773,13.2467189 19.9495798,12.8849739 20.9159664,12.8849739 C22.7226891,12.9251678 23.8991597,14.251566 23.8991597,16.0200969 C23.8991597,17.7886279 22.6806723,19.15522 20.8319328,19.15522 C16.210084,19.15522 17.512605,10.8752796 11.2941176,10.8752796 C8.18487395,10.8752796 6,13.0859433 6,16.0200969 L6,24.9833333 L8.22689076,24.9833333 L8.22689076,20.200261 L8.31092437,20.1600671 C9.02521008,20.7227815 9.94957983,21.0845265 11.1260504,21.0845265 C12.6386555,21.0845265 14.0252101,20.562006 14.9495798,19.516965 L13.5210084,18.0699851 C12.8067227,18.7130872 12.0504202,19.0748322 11.0840336,19.0748322 C9.27731092,19.0346383 8.10084034,17.7082401 8.10084034,15.9397092 C8.10084034,14.1711782 9.31932773,12.8045861 11.1680672,12.8045861 C15.789916,12.8045861 14.487395,21.0845265 20.7058824,21.0845265 C23.8151261,21.0845265 26,18.8738628 26,15.9397092 L26,7.01666667 L23.7731092,7.01666667 L23.7731092,7.01666667 Z" id="XMLID_284_" fill="#FFFFFF"></path>
                    </g>
                </g>
            </g>
        </g>
    </g>
</svg>