<?xml version="1.0" encoding="UTF-8"?>
<svg width="95px" height="22px" viewBox="0 0 95 22" version="1.1" xmlns="http://www.w3.org/2000/svg" xmlns:xlink="http://www.w3.org/1999/xlink">
    <!-- Generator: Sketch 47.1 (45422) - http://www.bohemiancoding.com/sketch -->
    <title>pubnub</title>
    <desc>Created with Sketch.</desc>
    <defs></defs>
    <g id="Page-1" stroke="none" stroke-width="1" fill="none" fill-rule="evenodd">
        <g id="01.-Desktop" transform="translate(-790.000000, -981.000000)" fill-rule="nonzero" fill="#AEB5BD">
            <g id="logos" transform="translate(261.000000, 974.000000)">
                <g id="pubnub" transform="translate(529.614913, 7.000000)">
                    <path d="M35.7176471,21.0294118 L34.8279412,20.9323529 C33.275,20.7705882 31.7544118,20.4308824 30.2985294,19.8970588 C30.1205882,19.8485294 30.0073529,19.6867647 30.0397059,19.5088235 C30.0397059,13.1029412 30.0397059,6.69705882 30.0397059,0.291176471 L30.0397059,0 L33,0 L33,6.6 L33.4529412,6.43823529 C34.8926471,5.88823529 36.4132353,5.64558824 37.95,5.69411765 C40.4088235,5.80735294 42.2367647,7.11764706 43.1102941,9.41470588 C43.4985294,10.4661765 43.6926471,11.5661765 43.6764706,12.6823529 C43.725,14.0411765 43.5794118,15.3838235 43.2235294,16.6941176 C42.5764706,19.0235294 41.0235294,20.3823529 38.6779412,20.8352941 C38.3220588,20.9 37.95,20.9323529 37.5779412,20.9808824 C37.5294118,20.9970588 37.4647059,21.0132353 37.4161765,21.0294118 L35.7176471,21.0294118 L35.7176471,21.0294118 Z M33,13.3617647 C33,14.8823529 33,16.4029412 33,17.9073529 C32.9838235,18.0691176 33.0808824,18.2147059 33.2426471,18.2470588 C34.1323529,18.5705882 35.0544118,18.7808824 36.0088235,18.8455882 C36.6720588,18.9102941 37.3514706,18.8617647 37.9985294,18.7161765 C39.2441176,18.3926471 39.9882353,17.5352941 40.3117647,16.3382353 C40.7808824,14.5911765 40.8779412,12.7794118 40.5544118,11 C40.4573529,10.2558824 40.15,9.54411765 39.6485294,8.97794118 C38.9044118,8.13676471 37.9014706,7.82941176 36.8176471,7.81323529 C35.5882353,7.79705882 34.3588235,8.02352941 33.2102941,8.47647059 C33.0647059,8.50882353 32.9676471,8.65441176 32.9838235,8.8 C33.0161765,10.3367647 33,11.8573529 33,13.3617647 L33,13.3617647 Z" id="Shape"></path>
                    <path d="M85.8485294,21.0294118 L84.9588235,20.9323529 C83.4058824,20.7705882 81.8852941,20.4308824 80.4294118,19.8970588 C80.2514706,19.8647059 80.1382353,19.6867647 80.1544118,19.5088235 C80.1544118,13.0867647 80.1544118,6.68088235 80.1544118,0.258823529 L80.1544118,0 L83.1147059,0 L83.1147059,6.6 C83.325,6.53529412 83.4867647,6.47058824 83.6485294,6.40588235 C85.0558824,5.87205882 86.5602941,5.62941176 88.0647059,5.69411765 C90.5720588,5.80735294 92.4,7.15 93.2573529,9.49558824 C93.7426471,10.7897059 93.8397059,12.1485294 93.7911765,13.5073529 C93.775,14.7044118 93.5970588,15.8852941 93.2411765,17.0338235 C92.5617647,19.1044118 91.1220588,20.3176471 89.0191176,20.7867647 C88.5823529,20.8838235 88.1294118,20.9161765 87.6764706,20.9808824 C87.6117647,20.9970588 87.5470588,21.0132353 87.4823529,21.0294118 L85.8485294,21.0294118 Z M83.1470588,13.3617647 C83.1470588,14.8985294 83.1470588,16.4191176 83.1470588,17.9558824 C83.1470588,18.0852941 83.1632353,18.1823529 83.3088235,18.2308824 C84.5705882,18.7161765 85.9132353,18.9264706 87.2558824,18.8617647 C88.0485294,18.8132353 88.7926471,18.6029412 89.4073529,18.0691176 C89.9897059,17.5676471 90.3132353,16.9044118 90.4911765,16.1926471 C90.9117647,14.5426471 90.9764706,12.8117647 90.7014706,11.1132353 C90.6044118,10.3691176 90.3294118,9.67352941 89.8602941,9.075 C89.1161765,8.16911765 88.0970588,7.84558824 86.9647059,7.82941176 C85.7191176,7.81323529 84.4897059,8.03970588 83.325,8.50882353 C83.1794118,8.54117647 83.0985294,8.67058824 83.1147059,8.81617647 C83.1308824,10.3205882 83.1308824,11.8411765 83.1470588,13.3617647 L83.1470588,13.3617647 Z" id="Shape"></path>
                    <path d="M0,1.21323529 C0,1.21323529 4.65882353,1.19705882 6.84264706,1.21323529 C7.87794118,1.19705882 8.91323529,1.34264706 9.9,1.63382353 C11.6955882,2.2 12.7632353,3.49411765 12.9735294,5.37058824 C13.0867647,6.34117647 13.0544118,7.32794118 12.8602941,8.28235294 C12.4882353,9.99705882 11.4205882,11.0647059 9.80294118,11.6308824 C8.89705882,11.9382353 7.94264706,12.0838235 6.97205882,12.0838235 C5.72647059,12.1 4.49705882,12.0838235 3.25147059,12.0838235 L2.96029412,12.0838235 L2.96029412,20.6573529 L0,20.6573529 L0,1.21323529 Z M2.97647059,9.93235294 C3.04117647,9.93235294 3.07352941,9.94852941 3.10588235,9.94852941 C4.25441176,9.94852941 5.38676471,9.96470588 6.53529412,9.93235294 C7.02058824,9.91617647 7.48970588,9.85147059 7.95882353,9.75441176 C8.92941176,9.52794118 9.64117647,9.01029412 9.9,8.00735294 C10.1102941,7.19852941 10.1426471,6.34117647 9.99705882,5.51617647 C9.81911765,4.52941176 9.25294118,3.86617647 8.26617647,3.62352941 C7.68382353,3.47794118 7.06911765,3.39705882 6.47058824,3.36470588 C5.38676471,3.31617647 4.30294118,3.34852941 3.21911765,3.34852941 C3.13823529,3.34852941 3.05735294,3.34852941 2.97647059,3.36470588 L2.97647059,9.93235294 Z" id="Shape"></path>
                    <path d="M20.2044118,21.0294118 C19.8485294,20.9808824 19.4764706,20.9485294 19.1205882,20.8838235 C18.2632353,20.7705882 17.4382353,20.4794118 16.6941176,20.0426471 C15.5294118,19.3308824 14.9470588,18.2632353 14.8014706,16.9205882 C14.7691176,16.5323529 14.7529412,16.1602941 14.7529412,15.7720588 C14.7529412,12.6176471 14.7529412,9.46323529 14.7529412,6.30882353 L14.7529412,6.03382353 L17.7132353,6.03382353 L17.7132353,6.325 C17.7132353,9.15588235 17.7132353,11.9867647 17.7132353,14.8176471 C17.6970588,15.5294118 17.7779412,16.225 17.9720588,16.9044118 C18.3117647,18.0205882 19.1044118,18.6676471 20.2529412,18.7970588 C21.6602941,18.9426471 23.0676471,18.8132353 24.4264706,18.425 C24.5882353,18.4088235 24.7014706,18.2470588 24.6852941,18.0852941 C24.6852941,18.0852941 24.6852941,18.0852941 24.6852941,18.0691176 C24.6852941,14.1544118 24.6852941,10.2235294 24.6852941,6.29264706 L24.6852941,6.00147059 L27.6455882,6.00147059 L27.6455882,6.29264706 C27.6455882,10.7573529 27.6455882,15.2220588 27.6455882,19.6867647 C27.6779412,19.8485294 27.5647059,20.0264706 27.4029412,20.0588235 C27.3867647,20.0588235 27.3867647,20.0588235 27.3705882,20.0588235 C25.6397059,20.5279412 23.8764706,20.8352941 22.0808824,20.9647059 C22.0161765,20.9808824 21.9676471,20.9808824 21.9029412,20.9970588 L20.2044118,21.0294118 Z" id="Shape"></path>
                    <path d="M70.3352941,21.0294118 C69.9794118,20.9808824 69.6073529,20.9485294 69.2514706,20.8838235 C68.4102941,20.7705882 67.6014706,20.4955882 66.8573529,20.0588235 C65.6764706,19.3470588 65.0779412,18.2955882 64.9323529,16.9367647 C64.9,16.5808824 64.8838235,16.2411765 64.8838235,15.8852941 C64.8838235,12.6985294 64.8838235,9.49558824 64.8838235,6.30882353 L64.8838235,6.01764706 L67.8441176,6.01764706 L67.8441176,6.30882353 C67.8441176,9.18823529 67.8441176,12.0838235 67.8441176,14.9632353 C67.8279412,15.6426471 67.9411765,16.3058824 68.1352941,16.9529412 C68.4911765,18.0529412 69.2838235,18.6676471 70.4,18.7970588 C71.775,18.9426471 73.15,18.8132353 74.4764706,18.4411765 C74.6867647,18.425 74.8323529,18.2308824 74.8,18.0205882 L74.8,18.0044118 C74.7838235,14.1058824 74.7838235,10.2073529 74.8,6.30882353 L74.8,6.01764706 L77.7441176,6.01764706 C77.7441176,6.09852941 77.7602941,6.17941176 77.7602941,6.26029412 C77.7602941,10.7573529 77.7602941,15.2544118 77.7602941,19.7352941 C77.7926471,19.8808824 77.6955882,20.0264706 77.55,20.0426471 L77.5338235,20.0426471 C75.8029412,20.5279412 74.0235294,20.8352941 72.2279412,20.9647059 C72.1632353,20.9808824 72.0985294,20.9808824 72.0338235,21.0132353 L70.3352941,21.0294118 Z" id="Shape"></path>
                    <path d="M62.0205882,20.6573529 L59.2705882,20.6573529 C58.7529412,20.6573529 58.2352941,20.6573529 57.7176471,20.6573529 C57.5720588,20.6735294 57.4264706,20.5926471 57.3779412,20.4470588 C56.1808824,18.1176471 54.9676471,15.7882353 53.7544118,13.4588235 L48.8044118,3.91470588 C48.7720588,3.85 48.7235294,3.80147059 48.6588235,3.76911765 L48.6588235,20.6411765 L46.0705882,20.6411765 L46.0705882,1.21323529 C46.1352941,1.21323529 46.2161765,1.19705882 46.2808824,1.19705882 C47.6397059,1.19705882 48.9823529,1.19705882 50.3411765,1.19705882 C50.4705882,1.18088235 50.6,1.26176471 50.6485294,1.39117647 C53.5279412,6.92352941 56.4073529,12.4720588 59.2867647,18.0044118 C59.3191176,18.0691176 59.3676471,18.1338235 59.4323529,18.1661765 L59.4323529,1.22941176 L62.0367647,1.22941176 L62.0205882,20.6573529 Z" id="Shape"></path>
                </g>
            </g>
        </g>
    </g>
</svg>