<?xml version="1.0" encoding="UTF-8"?>
<svg width="126px" height="34px" viewBox="0 0 126 34" version="1.1" xmlns="http://www.w3.org/2000/svg" xmlns:xlink="http://www.w3.org/1999/xlink">
    <!-- Generator: Sketch 47.1 (45422) - http://www.bohemiancoding.com/sketch -->
    <title>segment</title>
    <desc>Created with Sketch.</desc>
    <defs></defs>
    <g id="Page-1" stroke="none" stroke-width="1" fill="none" fill-rule="evenodd">
        <g id="01.-Desktop" transform="translate(-523.000000, -975.000000)" fill-rule="nonzero" fill="#AEB5BD">
            <g id="logos" transform="translate(261.000000, 974.000000)">
                <g id="segment" transform="translate(262.375563, 1.000000)">
                    <g id="XMLID_55_" transform="translate(47.441860, 9.488372)">
                        <path d="M6.64186047,6.95813953 L4.58604651,6.48372093 C3.55813953,6.24651163 3.00465116,5.61395349 3.00465116,4.66511628 C3.00465116,3.47906977 4.03255814,2.60930233 5.45581395,2.60930233 C7.43255814,2.60930233 7.98604651,4.03255814 8.06511628,4.50697674 C8.14418605,4.66511628 8.22325581,4.74418605 8.38139535,4.82325581 C8.53953488,4.90232558 8.69767442,4.90232558 8.77674419,4.82325581 L9.88372093,4.42790698 C10.1209302,4.34883721 10.2790698,4.03255814 10.2,3.79534884 C9.88372093,2.76744186 8.85581395,0.474418605 5.37674419,0.474418605 C2.76744186,0.474418605 0.553488372,2.45116279 0.553488372,4.82325581 C0.553488372,6.87906977 1.89767442,8.38139535 4.11162791,8.85581395 L6.08837209,9.25116279 C7.2744186,9.48837209 7.98604651,10.2 7.98604651,11.227907 C7.98604651,12.4930233 6.95813953,13.2046512 5.37674419,13.2046512 C3.47906977,13.2046512 2.53023256,11.9395349 2.29302326,10.7534884 C2.29302326,10.5953488 2.13488372,10.4372093 2.05581395,10.3581395 C1.89767442,10.2790698 1.73953488,10.2790698 1.58139535,10.2790698 L0.395348837,10.6744186 C0.158139535,10.7534884 0,10.9906977 0,11.3069767 C0.395348837,13.2837209 1.97674419,15.3395349 5.37674419,15.3395349 C8.22325581,15.3395349 10.3581395,13.4418605 10.3581395,10.9906977 C10.4372093,9.01395349 9.09302326,7.51162791 6.64186047,6.95813953 Z" id="XMLID_68_"></path>
                        <path d="M16.6046512,4.98139535 C14.3116279,4.98139535 11.8604651,6.95813953 11.8604651,10.2 C11.8604651,11.7813953 12.3348837,13.1255814 13.3627907,14.0744186 C14.2325581,14.944186 15.4976744,15.4186047 16.8418605,15.4186047 C18.8186047,15.4186047 20.4,14.3906977 21.1116279,12.6511628 C21.1906977,12.4930233 21.1906977,12.3348837 21.1116279,12.1767442 C21.0325581,12.0186047 20.9534884,11.9395349 20.7953488,11.8604651 L19.8465116,11.544186 C19.6093023,11.4651163 19.2930233,11.544186 19.1348837,11.8604651 C18.7395349,12.8093023 17.9488372,13.3627907 16.7627907,13.3627907 C15.4186047,13.3627907 14.3906977,12.4139535 14.1534884,11.0697674 C14.1534884,10.9906977 14.1534884,10.9906977 14.1534884,10.9906977 L14.2325581,10.9906977 L20.6372093,10.9906977 C20.9534884,10.9906977 21.1906977,10.7534884 21.1906977,10.5162791 C21.1906977,10.4372093 21.1906977,10.3581395 21.1906977,10.2 C21.3488372,6.95813953 19.5302326,4.98139535 16.6046512,4.98139535 Z M18.9767442,8.85581395 C18.9767442,8.93488372 18.9767442,8.93488372 18.9767442,8.93488372 L18.8976744,9.01395349 L14.4697674,9.01395349 C14.4697674,9.01395349 14.3906977,9.01395349 14.3906977,8.93488372 L14.3906977,8.85581395 C14.627907,7.90697674 15.4186047,7.0372093 16.6837209,7.0372093 C17.8697674,7.0372093 18.7395349,7.74883721 18.9767442,8.85581395 Z" id="XMLID_65_"></path>
                        <path d="M31.627907,5.21860465 L30.4418605,5.21860465 C30.1255814,5.21860465 29.8883721,5.45581395 29.8883721,5.77209302 C29.8883721,5.85116279 29.8093023,5.85116279 29.8093023,5.85116279 L29.7302326,5.85116279 C29.0976744,5.29767442 28.3069767,5.06046512 27.2,5.06046512 C24.5906977,5.06046512 22.6930233,7.0372093 22.6930233,9.88372093 C22.6930233,12.6511628 24.5906977,14.627907 27.2,14.627907 C28.1488372,14.627907 29.0186047,14.3116279 29.6511628,13.7581395 C29.7302326,13.7581395 29.7302326,13.7581395 29.7302326,13.7581395 C29.7302326,13.7581395 29.8093023,13.7581395 29.8093023,13.8372093 L29.8093023,14.2325581 C29.8093023,16.1302326 28.9395349,17.0790698 27.1209302,17.0790698 C25.9348837,17.0790698 25.0651163,16.3674419 24.827907,15.2604651 C24.827907,15.1023256 24.7488372,15.0232558 24.5906977,14.944186 C24.4325581,14.8651163 24.3534884,14.8651163 24.1953488,14.8651163 L23.0883721,15.1023256 C22.772093,15.1813953 22.6139535,15.4186047 22.6930233,15.7348837 C23.0883721,17.7116279 24.9069767,19.055814 27.2,19.055814 C28.9395349,19.055814 30.2046512,18.5023256 31.0744186,17.5534884 C31.7860465,16.6837209 32.1813953,15.4976744 32.1813953,14.1534884 L32.1813953,5.77209302 C32.1813953,5.53488372 31.944186,5.21860465 31.627907,5.21860465 Z M27.5162791,12.6511628 C25.9348837,12.6511628 24.9860465,11.544186 24.9860465,9.88372093 C24.9860465,8.22325581 25.9348837,7.11627907 27.5162791,7.11627907 C29.0186047,7.11627907 29.9674419,8.22325581 29.9674419,9.88372093 C29.9674419,11.544186 29.0186047,12.6511628 27.5162791,12.6511628 Z" id="XMLID_62_"></path>
                        <path d="M45.4651163,4.98139535 C44.2,4.98139535 43.0930233,5.45581395 42.4604651,6.40465116 L42.3813953,6.48372093 C42.3813953,6.48372093 42.3023256,6.48372093 42.3023256,6.40465116 C41.7488372,5.53488372 40.7209302,4.98139535 39.5348837,4.98139535 C38.5860465,4.98139535 37.7162791,5.29767442 37.0837209,5.85116279 C37.0046512,5.93023256 37.0046512,5.85116279 36.9255814,5.85116279 C36.9255814,5.85116279 36.8465116,5.85116279 36.8465116,5.77209302 C36.8465116,5.45581395 36.6093023,5.21860465 36.2930233,5.21860465 L35.1860465,5.21860465 C34.8697674,5.21860465 34.6325581,5.45581395 34.6325581,5.77209302 L34.6325581,14.5488372 C34.6325581,14.8651163 34.8697674,15.1023256 35.1860465,15.1023256 L36.372093,15.1023256 C36.6883721,15.1023256 36.9255814,14.8651163 36.9255814,14.5488372 L36.9255814,9.17209302 C36.9255814,7.90697674 37.7162791,7.0372093 38.9023256,7.0372093 C40.4837209,7.0372093 40.6418605,8.22325581 40.6418605,8.93488372 L40.6418605,14.5488372 C40.6418605,14.8651163 40.8790698,15.1023256 41.1953488,15.1023256 L42.3813953,15.1023256 C42.6976744,15.1023256 42.9348837,14.8651163 42.9348837,14.5488372 L42.9348837,9.17209302 C42.9348837,7.90697674 43.7255814,7.0372093 44.9116279,7.0372093 C46.4930233,7.0372093 46.6511628,8.22325581 46.6511628,8.93488372 L46.6511628,14.5488372 C46.6511628,14.8651163 46.8883721,15.1023256 47.2046512,15.1023256 L48.3906977,15.1023256 C48.7069767,15.1023256 48.944186,14.8651163 48.944186,14.5488372 L48.944186,8.77674419 C48.944186,6.16744186 47.2046512,4.98139535 45.4651163,4.98139535 Z" id="XMLID_61_"></path>
                        <path d="M55.5069767,4.98139535 C53.2139535,4.98139535 50.7627907,6.95813953 50.7627907,10.2 C50.7627907,11.7813953 51.2372093,13.1255814 52.2651163,14.0744186 C53.1348837,14.944186 54.4,15.4186047 55.744186,15.4186047 C57.7209302,15.4186047 59.3023256,14.3906977 60.0139535,12.6511628 C60.0930233,12.4930233 60.0930233,12.3348837 60.0139535,12.1767442 C59.9348837,12.0186047 59.855814,11.9395349 59.6976744,11.8604651 L58.7488372,11.544186 C58.5116279,11.4651163 58.1953488,11.544186 58.0372093,11.8604651 C57.6418605,12.8093023 56.8511628,13.3627907 55.6651163,13.3627907 C54.3209302,13.3627907 53.2930233,12.4139535 53.055814,11.0697674 C53.055814,10.9906977 53.055814,10.9906977 53.055814,10.9906977 L53.1348837,10.9906977 L59.5395349,10.9906977 C59.855814,10.9906977 60.0930233,10.7534884 60.0930233,10.5162791 C60.0930233,10.4372093 60.0930233,10.3581395 60.0930233,10.2 C60.2511628,6.95813953 58.4325581,4.98139535 55.5069767,4.98139535 Z M53.2930233,9.01395349 C53.2930233,9.01395349 53.2139535,9.01395349 53.2139535,8.93488372 L53.2139535,8.85581395 C53.4511628,7.90697674 54.2418605,7.0372093 55.5069767,7.0372093 C56.772093,7.0372093 57.6418605,7.74883721 57.8790698,8.85581395 C57.8790698,8.93488372 57.8790698,8.93488372 57.8790698,8.93488372 L57.8,9.01395349 L53.2930233,9.01395349 Z" id="XMLID_58_"></path>
                        <path d="M67.1302326,4.98139535 C66.1813953,4.98139535 65.3116279,5.29767442 64.6,5.93023256 C64.5209302,6.00930233 64.5209302,5.93023256 64.5209302,5.93023256 C64.5209302,5.93023256 64.4418605,5.93023256 64.4418605,5.85116279 L64.4418605,5.77209302 C64.4418605,5.45581395 64.2046512,5.21860465 63.8883721,5.21860465 L62.7813953,5.21860465 C62.4651163,5.21860465 62.227907,5.45581395 62.227907,5.77209302 L62.227907,14.5488372 C62.227907,14.8651163 62.4651163,15.1023256 62.7813953,15.1023256 L63.9674419,15.1023256 C64.2837209,15.1023256 64.5209302,14.8651163 64.5209302,14.5488372 L64.5209302,9.40930233 C64.5209302,8.30232558 65.0744186,7.0372093 66.4976744,7.0372093 C67.8418605,7.0372093 68.4744186,7.74883721 68.4744186,9.17209302 L68.4744186,14.4697674 C68.4744186,14.7860465 68.7116279,15.0232558 69.027907,15.0232558 L70.2139535,15.0232558 C70.5302326,15.0232558 70.7674419,14.7860465 70.7674419,14.4697674 L70.7674419,8.85581395 C70.6883721,6.48372093 69.344186,4.98139535 67.1302326,4.98139535 Z" id="XMLID_57_"></path>
                        <path d="M76.2232558,7.35348837 L77.5674419,7.35348837 C77.8837209,7.35348837 78.1209302,7.11627907 78.1209302,6.8 L78.1209302,5.77209302 C78.1209302,5.45581395 77.8837209,5.21860465 77.5674419,5.21860465 L76.2232558,5.21860465 C76.144186,5.21860465 76.144186,5.13953488 76.144186,5.13953488 L76.144186,2.84651163 C76.144186,2.53023256 75.9069767,2.29302326 75.5906977,2.29302326 L74.5627907,2.29302326 C74.2465116,2.29302326 74.0093023,2.53023256 74.0093023,2.84651163 L74.0093023,4.03255814 C74.0093023,4.58604651 73.772093,5.29767442 72.744186,5.29767442 L72.5860465,5.29767442 C72.2697674,5.29767442 72.0325581,5.53488372 72.0325581,5.85116279 L72.0325581,6.87906977 C72.0325581,7.19534884 72.2697674,7.43255814 72.5860465,7.43255814 L73.6930233,7.43255814 C73.772093,7.43255814 73.772093,7.51162791 73.772093,7.51162791 L73.772093,12.3348837 C73.772093,14.1534884 74.8790698,15.2604651 76.6186047,15.2604651 C77.0930233,15.2604651 77.4883721,15.1813953 77.6465116,15.1813953 C77.8837209,15.1023256 78.0418605,14.944186 78.0418605,14.627907 L78.0418605,13.6790698 C78.0418605,13.5209302 77.9627907,13.3627907 77.8837209,13.2837209 C77.8046512,13.2046512 77.6465116,13.1255814 77.4883721,13.1255814 C77.3302326,13.1255814 77.2511628,13.1255814 77.172093,13.1255814 C76.3813953,13.1255814 76.0651163,12.8093023 76.0651163,12.0186047 L76.0651163,7.43255814 C76.144186,7.43255814 76.144186,7.35348837 76.2232558,7.35348837 Z" id="XMLID_56_"></path>
                    </g>
                    <path d="M22.1395349,23.0093023 L1.73953488,23.0093023 C0.790697674,23.0093023 0,22.2976744 0,21.3488372 C0,20.4 0.790697674,19.6093023 1.73953488,19.6093023 L22.1395349,19.6093023 C23.0883721,19.6093023 23.8790698,20.4 23.8790698,21.3488372 C23.8790698,22.2976744 23.0883721,23.0093023 22.1395349,23.0093023 Z" id="XMLID_54_"></path>
                    <path d="M17.7906977,33.5255814 C16.1302326,33.5255814 14.4697674,33.2883721 12.8883721,32.8139535 C12.0186047,32.4976744 11.4651163,31.5488372 11.7813953,30.6790698 C12.0976744,29.8093023 13.0465116,29.255814 13.9162791,29.572093 C15.1813953,29.9674419 16.4465116,30.1255814 17.7906977,30.1255814 C23.5627907,30.1255814 28.6232558,26.4093023 30.2837209,20.8744186 C30.5209302,20.0046512 31.5488372,19.4511628 32.4186047,19.7674419 C33.2883721,20.0046512 33.8418605,21.0325581 33.5255814,21.9023256 C31.3906977,28.7813953 25.0651163,33.5255814 17.7906977,33.5255814 Z" id="XMLID_53_"></path>
                    <path d="M33.8418605,14.3906977 L13.3627907,14.3906977 C12.4139535,14.3906977 11.6232558,13.6 11.6232558,12.6511628 C11.6232558,11.7023256 12.4139535,10.9116279 13.3627907,10.9116279 L33.8418605,10.9116279 C34.7906977,10.9116279 35.5813953,11.7023256 35.5813953,12.6511628 C35.5813953,13.6 34.7906977,14.3906977 33.8418605,14.3906977 Z" id="XMLID_52_"></path>
                    <path d="M3.6372093,14.3906977 C3.47906977,14.3906977 3.32093023,14.3906977 3.1627907,14.3116279 C2.29302326,14.0744186 1.73953488,13.0465116 2.05581395,12.1767442 C4.11162791,5.21860465 10.4372093,0.553488372 17.7906977,0.553488372 C19.4511628,0.553488372 21.1116279,0.790697674 22.6930233,1.26511628 C23.5627907,1.58139535 24.1162791,2.53023256 23.8,3.4 C23.4837209,4.26976744 22.5348837,4.82325581 21.6651163,4.50697674 C20.4,4.11162791 19.055814,3.95348837 17.7906977,3.95348837 C11.9395349,3.95348837 6.95813953,7.66976744 5.21860465,13.2046512 C5.06046512,13.9162791 4.34883721,14.3906977 3.6372093,14.3906977 Z" id="XMLID_51_"></path>
                    <circle id="XMLID_46_" cx="27.9116279" cy="6.16744186" r="1.73953488"></circle>
                    <circle id="XMLID_45_" cx="7.66976744" cy="27.8325581" r="1.73953488"></circle>
                </g>
            </g>
        </g>
    </g>
</svg>